<svg width="240" height="240" viewBox="0 0 240 240" fill="none" xmlns="http://www.w3.org/2000/svg">
<g clip-path="url(#clip0_8_48)">
<mask id="mask0_8_48" style="mask-type:luminance" maskUnits="userSpaceOnUse" x="-48" y="-48" width="336" height="336">
<path d="M-48 -48H288V288H-48V-48Z" fill="white"/>
</mask>
<g mask="url(#mask0_8_48)">
<path d="M240 120C240 53.7259 186.274 3.21367e-05 120 3.21367e-05C53.7259 3.21367e-05 0 53.7259 0 120C0 176.277 38.7432 223.498 91.0109 236.466V156.67H66.2659V120H91.0109V104.199C91.0109 63.3547 109.495 44.4235 149.594 44.4235C157.196 44.4235 170.314 45.9139 175.68 47.4048V80.6467C172.848 80.3486 167.929 80.1993 161.817 80.1993C142.14 80.1993 134.538 87.6528 134.538 107.031V120H173.734L167.001 156.67H134.538V239.121C193.955 231.944 240 181.353 240 120Z" fill="#888888"/>
<path d="M167 156.67L173.734 120H134.538V107.031C134.538 87.6524 142.14 80.1995 161.817 80.1995C167.929 80.1995 172.848 80.3483 175.68 80.6464V47.405C170.314 45.9141 157.196 44.4232 149.594 44.4232C109.495 44.4232 91.0106 63.3549 91.0106 104.199V120H66.2656V156.67H91.0106V236.466C100.295 238.769 110.003 240 120 240C124.922 240 129.772 239.697 134.538 239.121V156.67H167Z" fill="white"/>
</g>
</g>
<defs>
<clipPath id="clip0_8_48">
<rect width="240" height="240" fill="white"/>
</clipPath>
</defs>
</svg>
