<?xml version="1.0" standalone="no"?>
<svg version="1.0" xmlns="http://www.w3.org/2000/svg"
 width="120.000000pt" height="120.000000pt" viewBox="0 0 1254.000000 1254.000000"
 preserveAspectRatio="xMidYMid meet">
 <g transform="translate(0.000000,1254.000000) scale(0.100000,-0.100000)" stroke="none">
  <!-- Teal Parts -->
  <path fill="#18a8b8" d="
   m1734 -553 c15 -13 85 -65 156 -116 70 -51 125 -97 122 -102 -4 -5 0 -7
7 -4 7 2 186 -122 398 -276 212 -154 486 -353 610 -441 302 -216 320 -230 313
-241 -3 -6 -1 -7 5 -3 10 6 84 -42 258 -170 91 -66 177 -127 276 -197 36 -26
77 -64 90 -84 l23 -38 0 -1255 c0 -1244 0 -1255 -20 -1290 -12 -19 -72 -77
-135 -127 -108 -87 -141 -109 -124 -81 4 7 3 8 -5 4 -6 -4 -9 -11 -6 -16 6 -9
-222 -190 -1089 -863 -155 -121 -377 -294 -494 -385 -211 -165 -243 -188 -226
-161 7 12 5 12 -9 0 -9 -7 -15 -17 -12 -21 8 -13 -165 -140 -191 -140 l-24 0
0 139 c0 140 5 176 21 165 5 -3 7 1 4 8 -2 8 57 61 143 129 81 64 265 212 410
329 145 116 266 209 269 206 4 -3 1 -6 -5 -6 -7 0 -12 -5 -12 -11 0 -8 5 -8
15 1 8 7 13 16 10 20 -5 8 467 390 480 390 4 0 3 -5 -1 -12 -4 -7 -3 -8 5 -4
6 4 9 11 6 15 -4 8 217 191 230 191 4 0 3 -6 -1 -12 -4 -7 -5 -11 -1 -8 3 3 5
8 4 11 -3 10 34 49 46 49 6 0 2 -10 -9 -22 l-19 -23 23 19 c12 11 20 21 17 24
-2 3 9 24 26 47 62 86 59 18 59 1399 0 824 -4 1277 -11 1306 -16 70 -50 112
-158 195 -56 42 -99 81 -96 85 3 5 0 12 -6 16 -8 4 -9 3 -5 -4 4 -7 4 -12 1
-12 -9 0 11 -15 -750 566 -187 143 -412 315 -501 382 -89 67 -169 131 -179
142 -15 17 -17 37 -16 156 1 76 4 141 7 146 10 15 42 8 71 -15z 
   m-1597 -1772
l0 -95 -738 0 c-406 0 -741 2 -743 4 -2 2 -3 45 -1 95 l3 91 740 0 739 0 0
-95z 
   m-1750 0 l0 -45 -445 0 -445 0 0 45 0 45 445 0 445 0 0 -45z 
   m-360 -625 l0 -110 -110 0 -110
0 0 110 0 110 110 0 110 0 0 -110z 
   m625 13 l0 -103 -110 -2 -110 -2 0 105
0 104 110 0 110 0 0 -102z 
  "/>
  <!-- Theme-adaptive Parts -->
  <path fill="currentColor" d="
   m5943 3550 c45 -28 279 -201 802 -590 143 -106 337 -250 430 -320 94
-70 305 -227 470 -350 414 -309 766 -570 1171 -869 122 -90 165 -128 180 -157
18 -38 19 -78 22 -1214 3 -1298 6 -1224 -61 -1287 -35 -33 -1627 -1275 -2024
-1579 -65 -50 -244 -187 -398 -306 -524 -402 -624 -476 -660 -482 -43 -8 -87
13 -103 49 -10 21 -14 226 -19 823 -6 753 -7 796 -25 814 -17 17 -40 18 -296
18 -153 0 -502 3 -775 7 l-497 6 0 99 0 98 916 2 c504 2 936 1 960 0 l43 -4 3
-395 c3 -381 4 -395 23 -409 12 -9 31 -13 47 -10 14 3 212 147 440 321 227
173 611 465 853 649 242 184 539 409 660 501 121 92 288 219 372 282 131 99
156 122 178 166 l25 51 0 520 c0 482 -2 524 -19 561 -22 49 -54 78 -246 225
-137 104 -996 768 -1360 1050 -409 317 -859 656 -883 666 -35 15 -69 2 -82
-31 -6 -16 -10 -169 -10 -371 l0 -344 -427 0 c-236 0 -668 3 -960 7 l-533 6 0
99 0 98 769 0 770 0 25 23 25 22 7 755 c7 795 7 793 51 819 34 20 87 12 136
-19z 
   m2744 -427
c253 -189 763 -573 974 -733 l92 -70 -22 -17 c-275 -215 -1323 -998 -1335
-998 -10 0 -13 61 -13 300 l0 300 -972 2 -973 3 0 100 0 100 479 3 c369 2 482
5 488 15 4 6 8 87 8 179 l0 167 -26 20 c-27 21 -32 21 -845 21 l-819 0 0 99
c0 83 3 100 17 105 9 4 577 6 1262 6 685 0 1276 0 1314 0 l67 0 0 306 c0 277
2 306 16 300 9 -3 138 -97 288 -208z 
   m-2154 -55 l0 -108 -105 -3 -105 -4 0
111 0 111 105 0 105 0 0 -107z 
   m-900 -18 l0 -65 -712 2 -713 3 -3 49 c-2 27
-1 55 2 62 5 12 122 14 716 14 l710 0 0 -65z 
   m760 -600 l0 -60 -829 0 -828 0 0 60 0 60
829 0 828 0 0 -60z 
   m-885 -635 l0 -110 -110 0 -110 0 -3 99 c-1 55 0 106 2
113 4 11 30 13 113 11 l108 -3 0 -110z 
   m1920 -3 l0 -95 -755 0 -755 0 0 95 0 95 755 0 755
0 0 -95z
  "/>
  <!-- Dust/Noise paths from trace -->
  <path fill="currentColor" d="
   M7790 3699 c0 -5 5 -7 10 -4 6 3 10 8 10 11 0 2 -4 4 -10 4 -5 0 -10
-5 -10 -11z
   M7612 3390 c0 -14 2 -19 5 -12 2 6 2 18 0 25 -3 6 -5 1 -5 -13z
   M3451 7514 c0 -11 3 -14 6 -6 3 7 2 16 -1 19 -3 4 -6 -2 -5 -13z
   M3568 7523 c7 -3 16 -2 19 1 4 3 -2 6 -13 5 -11 0 -14 -3 -6 -6z
   M4133 7523 c9 -2 25 -2 35 0 9 3 1 5 -18 5 -19 0 -27 -2 -17 -5z
   M3498 7463 c23 -2 61 -2 85 0 23 2 4 4 -43 4 -47 0 -66 -2 -42 -4z
   M3863 7463 c87 -2 227 -2 310 0 84 1 13 3 -158 3 -170 0 -239 -2
-152 -3z
   M4818 7103 c12 -2 30 -2 40 0 9 3 -1 5 -23 4 -22 0 -30 -2 -17 -4z
   M4895 6951 c-3 -11 -14 -22 -23 -24 -10 -3 -6 -5 11 -6 22 -1 27 3
27 24 0 30 -6 32 -15 6z
   M4098 5063 c7 -3 16 -2 19 1 4 3 -2 6 -13 5 -11 0 -14 -3 -6 -6z
  "/>
 </g>
</svg>