<svg width="8" height="11" viewBox="0 0 8 11" fill="none" xmlns="http://www.w3.org/2000/svg">
<path d="M7.55245 5.24769C7.55245 5.42952 7.48192 5.59254 7.34084 5.73675L4.27953 8.80276C4.21683 8.86546 4.14003 8.91405 4.04911 8.94854C3.96133 8.98616 3.87042 9.00497 3.77637 9.00497C3.68545 9.00497 3.59454 8.98616 3.50362 8.94854C3.41584 8.91405 3.33904 8.86546 3.2732 8.80276L0.211893 5.73675C0.0708188 5.59254 0.000281706 5.42952 0.000281709 5.24769C0.000281712 5.05332 0.0614139 4.89501 0.183678 4.77274C0.309077 4.65048 0.464259 4.58935 0.649223 4.58935C0.749542 4.58935 0.838889 4.60972 0.917264 4.65048C0.998773 4.6881 1.07088 4.73826 1.13358 4.80096L2.19163 5.85431L3.56005 7.42964L3.16975 7.69298L3.09451 5.92485L3.09451 0.705104C3.09451 0.49506 3.15721 0.325771 3.28261 0.197237C3.40801 0.0655677 3.57259 -0.000266945 3.77637 -0.000266942C3.98014 -0.000266939 4.14473 0.0655677 4.27013 0.197237C4.39553 0.325771 4.45823 0.49506 4.45823 0.705104L4.45823 5.92485L4.38769 7.69298L3.99738 7.42964L5.3611 5.85431L6.41916 4.80096C6.47872 4.73826 6.54926 4.6881 6.63077 4.65048C6.71228 4.60972 6.80319 4.58935 6.90351 4.58935C7.08848 4.58935 7.24209 4.65048 7.36435 4.77274C7.48975 4.89501 7.55245 5.05332 7.55245 5.24769ZM7.55245 9.66331C7.55245 9.84514 7.48975 10.0003 7.36435 10.1289C7.23895 10.2574 7.08534 10.3217 6.90351 10.3217L0.653925 10.3217C0.468961 10.3217 0.31378 10.2574 0.188381 10.1289C0.0629813 10.0003 0.000281632 9.84514 0.000281635 9.66331C0.000281638 9.47835 0.0629813 9.3216 0.188381 9.19307C0.31378 9.06767 0.468961 9.00497 0.653925 9.00497L6.90351 9.00497C7.08534 9.00497 7.23895 9.06767 7.36435 9.19307C7.48975 9.3216 7.55245 9.47835 7.55245 9.66331Z" fill="#888888"/>
</svg>
