<svg width="357" height="434" viewBox="0 0 357 434" fill="none" xmlns="http://www.w3.org/2000/svg">
<path d="M84.836 99.0311V57.2893C84.836 38.5872 89.6242 24.3916 99.2006 14.7026C108.89 4.90083 123.029 -2.4721e-05 141.618 -2.4721e-05H204.147C214.512 -2.4721e-05 223.75 1.4646 231.862 4.39385C239.974 7.3231 247.297 12.1676 253.831 18.9274L337.315 103.932C344.187 111.03 349.032 118.635 351.848 126.746C354.665 134.858 356.073 144.716 356.073 156.32V287.799C356.073 306.388 351.229 320.584 341.54 330.385C331.963 340.187 317.88 345.088 299.291 345.088H264.985V307.402H295.404C303.065 307.402 308.811 305.487 312.641 301.656C316.472 297.713 318.387 292.024 318.387 284.588V148.04H247.24C236.425 148.04 228.031 145.11 222.06 139.252C216.202 133.393 213.272 125 213.272 114.072V37.6859H145.505C137.731 37.6859 131.929 39.6575 128.099 43.6007C124.381 47.4313 122.522 53.0644 122.522 60.5002V99.0311H84.836ZM243.353 109.847C243.353 112.776 243.973 114.917 245.212 116.269C246.564 117.508 248.649 118.128 251.465 118.128H308.586L243.353 51.8815V109.847ZM0.00046517 376.183V145.674C0.00046517 127.084 4.78866 112.945 14.3651 103.256C24.0541 93.4543 38.1934 88.5534 56.7828 88.5534H115.086C125.789 88.5534 134.69 89.6801 141.787 91.9333C148.885 94.1866 155.983 98.9748 163.081 106.298L253.493 197.893C258.338 202.85 261.999 207.639 264.478 212.258C267.069 216.877 268.815 222.003 269.717 227.636C270.731 233.157 271.238 239.804 271.238 247.578V376.183C271.238 394.885 266.393 409.081 256.704 418.77C247.015 428.572 232.932 433.472 214.455 433.472H56.7828C38.1934 433.472 24.0541 428.572 14.3651 418.77C4.78866 409.081 0.00046517 394.885 0.00046517 376.183ZM37.5174 372.972C37.5174 380.408 39.4327 386.098 43.2632 390.041C47.0938 393.984 52.8396 395.956 60.5007 395.956H210.568C218.342 395.956 224.088 393.984 227.806 390.041C231.636 386.098 233.552 380.408 233.552 372.972V253.493H148.885C135.816 253.493 126.014 250.282 119.48 243.86C113.058 237.438 109.847 227.636 109.847 214.455V126.07H60.6697C52.8959 126.07 47.0938 128.042 43.2632 131.985C39.4327 135.928 37.5174 141.562 37.5174 148.885V372.972ZM152.265 221.553H229.496L141.956 132.83V211.244C141.956 214.849 142.745 217.497 144.322 219.187C146.012 220.764 148.66 221.553 152.265 221.553Z" fill="#191919"/>
</svg>
