<svg width="310" height="394" viewBox="0 0 310 394" fill="none" xmlns="http://www.w3.org/2000/svg">
<path d="M57.2879 393.252C38.5858 393.252 24.3339 388.407 14.5322 378.718C4.8431 369.029 -0.00142692 354.946 -0.00142692 336.469V171.868C-0.00142692 153.279 4.8431 139.196 14.5322 129.619C24.3339 119.93 38.5858 115.086 57.2879 115.086H105.452V152.603H60.3298C52.894 152.603 47.2045 154.518 43.2613 158.348C39.4308 162.066 37.5155 167.812 37.5155 175.586V332.582C37.5155 340.356 39.4308 346.102 43.2613 349.82C47.2045 353.65 52.894 355.566 60.3298 355.566H249.097C256.421 355.566 262.054 353.65 265.997 349.82C269.94 346.102 271.912 340.356 271.912 332.582V175.586C271.912 167.812 269.94 162.066 265.997 158.348C262.054 154.518 256.421 152.603 249.097 152.603H203.976V115.086H252.308C271.01 115.086 285.206 119.93 294.895 129.619C304.697 139.196 309.598 153.279 309.598 171.868V336.469C309.598 354.946 304.697 369.029 294.895 378.718C285.206 388.407 271.01 393.252 252.308 393.252H57.2879ZM154.629 254.169C149.897 254.169 145.841 252.479 142.461 249.099C139.082 245.719 137.392 241.776 137.392 237.269V69.119L138.913 44.2767L130.463 55.5994L107.817 79.7657C104.663 83.0329 100.776 84.6666 96.1568 84.6666C92.1009 84.6666 88.552 83.3146 85.5101 80.6107C82.5809 77.9067 81.1162 74.4142 81.1162 70.133C81.1162 66.0771 82.6935 62.4155 85.8481 59.1483L141.278 5.91482C143.644 3.66156 145.898 2.1406 148.038 1.35196C150.179 0.450648 152.376 -5.48363e-06 154.629 -5.48363e-06C156.995 -5.48363e-06 159.248 0.450648 161.389 1.35196C163.642 2.1406 165.895 3.66156 168.149 5.91482L223.579 59.1483C226.734 62.4155 228.311 66.0771 228.311 70.133C228.311 74.4142 226.79 77.9067 223.748 80.6107C220.706 83.3146 217.157 84.6666 213.101 84.6666C208.482 84.6666 204.652 83.0329 201.61 79.7657L179.133 55.5994L170.684 44.2767L172.036 69.119V237.269C172.036 241.776 170.346 245.719 166.966 249.099C163.699 252.479 159.586 254.169 154.629 254.169Z" fill="#191919"/>
</svg>
