<svg width="13" height="12" viewBox="0 0 13 12" fill="none" xmlns="http://www.w3.org/2000/svg">
<path d="M2.17091 11.7576C1.46988 11.7576 0.932832 11.5711 0.559769 11.198C0.186706 10.829 0.000174721 10.2961 0.000174733 9.59917L0.000174857 2.15841C0.000174868 1.46148 0.186706 0.928535 0.559769 0.559572C0.932832 0.186509 1.46988 -2.19189e-05 2.17091 -2.19072e-05L10.7432 -2.17645e-05C11.4442 -2.17528e-05 11.9792 0.18651 12.3481 0.559572C12.7212 0.928536 12.9077 1.46148 12.9077 2.15841L12.9077 9.59917C12.9077 10.2961 12.7212 10.829 12.3481 11.198C11.9792 11.5711 11.4442 11.7576 10.7432 11.7576L2.17091 11.7576ZM2.28775 10.1711L10.6202 10.1711C10.8497 10.1711 11.024 10.1137 11.1429 9.99888C11.2618 9.88409 11.3212 9.70576 11.3212 9.46388L11.3212 3.99093C11.3212 3.75315 11.2618 3.57687 11.1429 3.46208C11.024 3.34729 10.8497 3.2899 10.6202 3.2899L2.28775 3.2899C2.05817 3.2899 1.88394 3.34729 1.76505 3.46208C1.64616 3.57687 1.58672 3.75315 1.58672 3.99093L1.58672 9.46388C1.58672 9.70576 1.64616 9.88409 1.76505 9.99888C1.88394 10.1137 2.05817 10.1711 2.28775 10.1711ZM5.3071 5.28845C5.19231 5.28845 5.11237 5.2659 5.06727 5.22081C5.02217 5.17571 4.99963 5.09782 4.99963 4.98713L4.99963 4.62432C4.99963 4.51363 5.02217 4.43779 5.06727 4.39679C5.11237 4.35169 5.19231 4.32915 5.3071 4.32915L5.66376 4.32915C5.77855 4.32915 5.85849 4.35169 5.90359 4.39679C5.94868 4.43779 5.97123 4.51363 5.97123 4.62432L5.97123 4.98713C5.97123 5.09782 5.94868 5.17571 5.90359 5.22081C5.85849 5.2659 5.77855 5.28845 5.66376 5.28845L5.3071 5.28845ZM7.25645 5.28845C7.14576 5.28845 7.06787 5.2659 7.02277 5.22081C6.97768 5.17571 6.95513 5.09782 6.95513 4.98713L6.95513 4.62432C6.95513 4.51363 6.97768 4.43779 7.02277 4.39679C7.06787 4.35169 7.14576 4.32915 7.25645 4.32915L7.61927 4.32915C7.73405 4.32915 7.814 4.35169 7.85909 4.39679C7.90419 4.43779 7.92673 4.51363 7.92673 4.62432L7.92673 4.98713C7.92673 5.09782 7.90419 5.17571 7.85909 5.22081C7.814 5.2659 7.73405 5.28845 7.61927 5.28845L7.25645 5.28845ZM9.21196 5.28845C9.10127 5.28845 9.02338 5.2659 8.97828 5.22081C8.93318 5.17571 8.91064 5.09782 8.91064 4.98713L8.91064 4.62432C8.91064 4.51363 8.93318 4.43779 8.97828 4.39679C9.02338 4.35169 9.10127 4.32915 9.21196 4.32915L9.57477 4.32915C9.68956 4.32915 9.7695 4.35169 9.8146 4.39679C9.85969 4.43779 9.88224 4.51363 9.88224 4.62432L9.88224 4.98713C9.88224 5.09782 9.85969 5.17571 9.8146 5.22081C9.7695 5.2659 9.68956 5.28845 9.57477 5.28845L9.21196 5.28845ZM3.35159 7.20706C3.2368 7.20706 3.15686 7.18656 3.11176 7.14557C3.06667 7.10047 3.04412 7.02258 3.04412 6.91189L3.04412 6.54908C3.04412 6.43839 3.06667 6.36254 3.11176 6.32155C3.15686 6.27645 3.2368 6.2539 3.35159 6.2539L3.7144 6.2539C3.82509 6.2539 3.90299 6.27645 3.94808 6.32155C3.99318 6.36254 4.01572 6.43839 4.01572 6.54908L4.01572 6.91189C4.01572 7.02258 3.99318 7.10047 3.94808 7.14557C3.90299 7.18656 3.82509 7.20706 3.7144 7.20706L3.35159 7.20706ZM5.3071 7.20706C5.19231 7.20706 5.11237 7.18656 5.06727 7.14557C5.02217 7.10047 4.99963 7.02258 4.99963 6.91189L4.99963 6.54908C4.99963 6.43839 5.02217 6.36254 5.06727 6.32155C5.11237 6.27645 5.19231 6.2539 5.3071 6.2539L5.66376 6.2539C5.77855 6.2539 5.85849 6.27645 5.90359 6.32155C5.94868 6.36254 5.97123 6.43839 5.97123 6.54908L5.97123 6.91189C5.97123 7.02258 5.94868 7.10047 5.90359 7.14557C5.85849 7.18656 5.77855 7.20706 5.66376 7.20706L5.3071 7.20706ZM7.25645 7.20706C7.14576 7.20706 7.06787 7.18656 7.02277 7.14557C6.97768 7.10047 6.95513 7.02258 6.95513 6.91189L6.95513 6.54908C6.95513 6.43839 6.97768 6.36254 7.02277 6.32155C7.06787 6.27645 7.14576 6.2539 7.25645 6.2539L7.61927 6.2539C7.73405 6.2539 7.814 6.27645 7.85909 6.32155C7.90419 6.36254 7.92673 6.43839 7.92673 6.54908L7.92673 6.91189C7.92673 7.02258 7.90419 7.10047 7.85909 7.14557C7.814 7.18656 7.73405 7.20706 7.61927 7.20706L7.25645 7.20706ZM9.21196 7.20706C9.10127 7.20706 9.02338 7.18656 8.97828 7.14557C8.93318 7.10047 8.91064 7.02258 8.91064 6.91189L8.91064 6.54908C8.91064 6.43839 8.93318 6.36254 8.97828 6.32155C9.02338 6.27645 9.10127 6.2539 9.21196 6.2539L9.57477 6.2539C9.68956 6.2539 9.7695 6.27645 9.8146 6.32155C9.85969 6.36254 9.88224 6.43839 9.88224 6.54908L9.88224 6.91189C9.88224 7.02258 9.85969 7.10047 9.8146 7.14557C9.7695 7.18656 9.68956 7.20706 9.57477 7.20706L9.21196 7.20706ZM3.35159 9.13182C3.2368 9.13182 3.15686 9.11132 3.11176 9.07032C3.06667 9.02523 3.04412 8.94529 3.04412 8.8305L3.04412 8.47383C3.04412 8.35904 3.06667 8.28115 3.11176 8.24016C3.15686 8.19916 3.2368 8.17866 3.35159 8.17866L3.7144 8.17866C3.82509 8.17866 3.90299 8.19916 3.94808 8.24016C3.99318 8.28115 4.01572 8.35904 4.01572 8.47383L4.01572 8.8305C4.01572 8.94529 3.99318 9.02523 3.94808 9.07032C3.90299 9.11132 3.82509 9.13182 3.7144 9.13182L3.35159 9.13182ZM5.3071 9.13182C5.19231 9.13182 5.11237 9.11132 5.06727 9.07032C5.02217 9.02523 4.99963 8.94529 4.99963 8.8305L4.99963 8.47383C4.99963 8.35904 5.02217 8.28115 5.06727 8.24016C5.11237 8.19916 5.19231 8.17866 5.3071 8.17866L5.66376 8.17866C5.77855 8.17866 5.85849 8.19916 5.90359 8.24016C5.94868 8.28115 5.97123 8.35904 5.97123 8.47383L5.97123 8.8305C5.97123 8.94529 5.94868 9.02523 5.90359 9.07032C5.85849 9.11132 5.77855 9.13182 5.66376 9.13182L5.3071 9.13182ZM7.25645 9.13182C7.14576 9.13182 7.06787 9.11132 7.02277 9.07032C6.97768 9.02523 6.95513 8.94529 6.95513 8.8305L6.95513 8.47383C6.95513 8.35904 6.97768 8.28115 7.02277 8.24016C7.06787 8.19916 7.14576 8.17866 7.25645 8.17866L7.61927 8.17866C7.73405 8.17866 7.814 8.19916 7.85909 8.24016C7.90419 8.28115 7.92673 8.35904 7.92673 8.47383L7.92673 8.8305C7.92673 8.94529 7.90419 9.02523 7.85909 9.07032C7.814 9.11132 7.73405 9.13182 7.61927 9.13182L7.25645 9.13182Z" fill="#8D939E"/>
</svg>
