<svg width="12" height="10" viewBox="0 0 12 10" fill="none" xmlns="http://www.w3.org/2000/svg">
<path d="M2.55839 0.207717C2.68692 0.069778 2.84054 0.00080836 3.01923 0.000808363C3.20106 0.000808366 3.35781 0.069778 3.48948 0.207717L5.85482 2.63419C5.98022 2.76273 6.04292 2.91321 6.04292 3.08563C6.04292 3.26746 5.98492 3.41794 5.86893 3.53707C5.75294 3.65306 5.60402 3.71106 5.42219 3.71106C5.24664 3.71106 5.10243 3.64993 4.98957 3.52766L4.03026 2.53544L3.62585 2.06049L3.64936 2.92575L3.64936 8.51699C3.64936 8.69882 3.5898 8.84929 3.47067 8.96842C3.35154 9.08755 3.20263 9.14712 3.02393 9.14712C2.8421 9.14712 2.69163 9.08755 2.5725 8.96842C2.45337 8.84929 2.3938 8.69882 2.3938 8.51699L2.3938 2.92575L2.42202 2.06049L2.0129 2.53544L1.0583 3.52766C0.945441 3.64993 0.799664 3.71106 0.62097 3.71106C0.439141 3.71106 0.290229 3.65306 0.174235 3.53707C0.0582407 3.41794 0.000243585 3.26746 0.000243588 3.08563C0.000243591 2.91321 0.0645107 2.76273 0.193045 2.63419L2.55839 0.207717ZM9.07131 8.94491C8.93964 9.07972 8.78289 9.14712 8.60107 9.14712C8.42237 9.14712 8.26876 9.07972 8.14022 8.94491L5.77488 6.50903C5.64635 6.38363 5.58208 6.23315 5.58208 6.05759C5.58208 5.87576 5.64008 5.72685 5.75607 5.61086C5.8752 5.49486 6.02568 5.43687 6.20751 5.43687C6.38307 5.43687 6.52728 5.49643 6.64013 5.61556L7.59474 6.60778L8.00385 7.08273L7.97564 6.21748L7.97564 0.63094C7.97564 0.449111 8.0352 0.298632 8.15433 0.179502C8.27346 0.0603731 8.42394 0.000808453 8.60577 0.000808456C8.78446 0.000808459 8.93337 0.0603731 9.0525 0.179502C9.17163 0.298632 9.2312 0.449111 9.2312 0.63094L9.2312 6.21748L9.20768 7.08273L9.6168 6.60778L10.5667 5.61556C10.6796 5.49643 10.8253 5.43687 11.004 5.43687C11.1859 5.43687 11.3348 5.49486 11.4508 5.61086C11.5668 5.72685 11.6248 5.87576 11.6248 6.05759C11.6248 6.23315 11.5605 6.38363 11.432 6.50903L9.07131 8.94491Z" fill="#8D939E"/>
</svg>
